<svg xmlns="http://www.w3.org/2000/svg" xmlns:xlink="http://www.w3.org/1999/xlink" viewBox="0 0 512 512"><defs><style>.cls-1{fill:none;}.cls-2{clip-path:url(#clip-path);}.cls-3{fill:#3aabd2;}</style><clipPath id="clip-path" transform="translate(138.44 132.89)"><rect class="cls-1" width="251.19" height="251.19"/></clipPath></defs><g id="レイヤー_2" data-name="レイヤー 2"><g id="_10" data-name="10"><g class="cls-2"><path class="cls-3" d="M117.56-132.89c-141.38,0-256,114.61-256,256s114.62,256,256,256,256-114.62,256-256S259-132.89,117.56-132.89Zm0,448c-105.86,0-192-86.13-192-192s86.14-192,192-192,192,86.13,192,192S223.44,315.11,117.56,315.11Z" transform="translate(138.44 132.89)"/><path class="cls-3" d="M251,53.46c.06-.08.13-.16.18-.24a102.62,102.62,0,0,1-23.33,7.13c-2,.32-4,.61-6,.8a51.71,51.71,0,0,0,19.39-21.22,53.45,53.45,0,0,0,3.1-7l-.18.09a2.29,2.29,0,0,1,.1-.23,103.36,103.36,0,0,1-32.72,12.5,51.48,51.48,0,0,0-88,46c0,.34.09.68.15,1a146.08,146.08,0,0,1-96-42.6,143.66,143.66,0,0,1-10-11.15l0,0-.12-.13a51.41,51.41,0,0,0,9,63.13,53.43,53.43,0,0,0,6.67,5.64,51.29,51.29,0,0,1-23.1-6.42v.64a51.4,51.4,0,0,0,30.05,46.67,52.08,52.08,0,0,0,11,3.91,51.6,51.6,0,0,1-13.3,1.75,50.93,50.93,0,0,1-7.86-.66c-.55-.12-1.14-.17-1.68-.31l0,.07-.18,0a51.64,51.64,0,0,0,39.9,35,54,54,0,0,0,8.09.91,103.4,103.4,0,0,1-63.85,22c-3.48,0-6.89-.27-10.28-.6-.64-.1-1.3-.14-1.92-.26.08.06.17.1.26.16L0,210a145.81,145.81,0,0,0,79,23.15c46.37,0,82.43-18.83,107.2-46,.21-.24.43-.46.64-.7,2.67-3,5.19-6,7.59-9.18.57-.75,1.16-1.49,1.71-2.25,2-2.77,3.94-5.61,5.76-8.49.73-1.16,1.47-2.3,2.17-3.47,1.62-2.72,3.13-5.5,4.57-8.3.66-1.29,1.33-2.57,1.95-3.87,1.44-3,2.75-6.05,4-9.12.41-1,.84-2.05,1.23-3.09,1.41-3.72,2.65-7.49,3.76-11.28.09-.3.19-.6.27-.9a145.82,145.82,0,0,0,5.75-39.95q0-3.34-.15-6.67a104.37,104.37,0,0,0,21.15-20.46c1.59-2,3.16-4,4.62-6.06Z" transform="translate(138.44 132.89)"/></g></g></g></svg>